<svg xmlns="http://www.w3.org/2000/svg" viewBox="0 0 56 56" fill="none" aria-hidden="true">
  <rect width="56" height="56" rx="12" fill="#f3f3f3"/>
  <rect x="1" y="1" width="54" height="54" rx="11" stroke="#141414" stroke-opacity="0.1"/>
  <rect x="24" y="30" width="8" height="12" rx="2" fill="#141414"/>
  <path d="M20 30h16a4 4 0 0 0 4-4v-2a8 8 0 0 0-16 0v2a4 4 0 0 0 4 4z" fill="#fcd34d" stroke="#141414" stroke-width="2"/>
  <path d="M14 20c2 3 5 4 8 4M42 20c-2 3-5 4-8 4" stroke="#141414" stroke-width="1.5" stroke-linecap="round"/>
  <path d="M12 26c3 4 7.5 6 12 6M44 26c-3 4-7.5 6-12 6" stroke="#141414" stroke-width="1.5" stroke-linecap="round" stroke-opacity="0.55"/>
  <path d="M22 44h12" stroke="#141414" stroke-width="2" stroke-linecap="round"/>
</svg>
